<mxfile host="app.diagrams.net" modified="2024-07-08T01:56:41.037Z" agent="Mozilla/5.0 (Windows NT 10.0; Win64; x64) AppleWebKit/537.36 (KHTML, like Gecko) Chrome/126.0.0.0 Safari/537.36" version="24.6.4" etag="BOVUK8YA2Kdn15_822D7" type="github">
  <diagram name="第 1 页" id="enz2aPLxduiCD4KwRinV">
    <mxGraphModel>
      <root>
        <mxCell id="0" />
        <mxCell id="1" parent="0" />
      </root>
    </mxGraphModel>
  </diagram>
</mxfile>
